<svg id="Capa_2" data-name="Capa 2" xmlns="http://www.w3.org/2000/svg" viewBox="0 0 195.44 180.44"><path d="M237.11,168.27a592,592,0,0,1-7.34,71.51c-8.27,48.91-21.88,82.37-39.48,97.28a33.15,33.15,0,0,0-21.87-8.21c-7.78,0-15.9,2.61-24.16,7.79-8-4.39-15.95-6.61-23.52-6.61A35.54,35.54,0,0,0,99,337.24c-17.71-14.81-31.39-48.35-39.7-97.46A592,592,0,0,1,52,168.27H237.11m5.17-5H46.83S49.5,309.05,99.28,343.72c0,0,7.5-8.69,21.46-8.69,6.4,0,14.16,1.83,23.17,7.15a5.9,5.9,0,0,1,.87-.07H145c9.13-6.17,17-8.27,23.42-8.27a28,28,0,0,1,21.41,9.87c49.78-34.67,52.45-180.45,52.45-180.45Z" transform="translate(-46.83 -163.27)"/></svg>