<svg id="Capa_1" enable-background="new 0 0 512 512" height="512" viewBox="0 0 512 512" width="512" xmlns="http://www.w3.org/2000/svg"><g><path d="m501.258 10.739c-9.696-9.695-33.108-13.095-62.633-9.094-24.027 3.256-62.557 12.807-109.667 39.812-3.6 2.064-4.845 6.656-2.782 10.256 2.064 3.6 6.653 4.846 10.257 2.782 82.457-47.268 144.523-42.803 154.197-33.13 3.068 3.068 6.566 12.982 6.325 30.825-.222 16.485-3.946 51.193-26.38 98.421-21.675 45.631-54.228 89.194-96.752 129.48-19.293 18.278-39.694 36.763-60.638 54.944-3.135 2.72-3.47 7.466-.749 10.6 2.73 3.144 7.48 3.46 10.601.749 21.107-18.323 41.672-36.956 61.122-55.382 93.058-88.16 127.046-181.063 127.824-238.609.266-19.679-3.543-34.473-10.725-41.654z"/><path d="m290.402 354.511c-26.218 22.072-52.275 42.842-76.938 61.388l-20.746-90.971c-.642-2.815-2.84-5.013-5.656-5.655l-90.965-20.746c39.592-52.689 87.704-109.579 135.807-160.355 25.082-26.475 51.825-49.372 79.487-68.054 3.439-2.323 4.344-6.994 2.021-10.433s-6.995-4.344-10.432-2.021c-28.568 19.294-56.152 42.904-81.986 70.173-59.77 63.09-119.11 134.986-162.805 197.25-21.159 30.15-37.444 56.519-47.095 76.254-12.236 25.021-14.248 39.624-6.522 47.349 7.972 7.973 21.414 6.415 34.416 4.909 5.65-.654 17.409-2.017 19.417-.008 2.009 2.009.647 13.766-.008 19.417-1.506 13.001-3.063 26.443 4.909 34.416 2.527 2.527 6.133 4.576 12.321 4.576 12.014 0 33.757-7.726 76.206-34.675 42.012-26.672 94.661-66.205 148.249-111.316 3.175-2.673 3.582-7.413.909-10.588s-7.413-3.581-10.589-.91zm-216.569 142.181c-2.702-3.005-1.383-14.39-.507-21.954 1.467-12.664 2.853-24.626-4.294-31.773s-19.109-5.76-31.773-4.294c-7.564.876-18.951 2.195-21.955-.508-.28-.724-2.265-7.697 11.265-34.163 3.536-6.918 7.873-14.638 12.905-23.008l74.529 16.997 17.001 74.549c-45.634 27.425-56.265 24.501-57.171 24.154zm73.417-34.274c-.924.594-1.837 1.178-2.739 1.753l-16.906-74.129c-.642-2.815-2.84-5.013-5.656-5.655l-74.109-16.902c4.328-6.8 9.024-13.93 14.076-21.356l31.677 7.224c.562.128 1.124.189 1.677.189 3.428 0 6.525-2.361 7.319-5.845.923-4.046-1.609-8.074-5.655-8.997l-25.802-5.884c.706-1.005 1.405-2.003 2.123-3.016 4.211-5.948 8.568-11.985 13.049-18.09l92.812 21.166 21.169 92.821c-7.19 5.28-14.237 10.349-21.105 15.178l-19.018-83.389c-.642-2.815-2.84-5.013-5.655-5.656l-28.279-6.449c-4.047-.927-8.074 1.609-8.997 5.655s1.609 8.074 5.655 8.997l23.674 5.4 19.307 84.653c-6.4 4.353-12.619 8.476-18.617 12.332z"/><path d="m221.343 290.648c2.934 2.935 7.692 2.935 10.627 0l179.212-179.211c2.934-2.934 2.934-7.692 0-10.627-2.935-2.934-7.693-2.934-10.628 0l-179.211 179.211c-2.935 2.935-2.935 7.693 0 10.627z"/></g></svg>